<?xml version="1.0" encoding="UTF-8" standalone="no"?>
<svg
   width="512"
   height="512"
   viewBox="0 0 512 512"
   version="1.1"
   id="svg3"
   sodipodi:docname="Plazr.svg"
   inkscape:version="1.4.2 (f4327f4, 2025-05-13)"
   xmlns:inkscape="http://www.inkscape.org/namespaces/inkscape"
   xmlns:sodipodi="http://sodipodi.sourceforge.net/DTD/sodipodi-0.dtd"
   xmlns="http://www.w3.org/2000/svg"
   xmlns:svg="http://www.w3.org/2000/svg">
  <sodipodi:namedview
     id="namedview3"
     pagecolor="#ffffff"
     bordercolor="#000000"
     borderopacity="0.25"
     inkscape:showpageshadow="2"
     inkscape:pageopacity="0.0"
     inkscape:pagecheckerboard="0"
     inkscape:deskcolor="#d1d1d1"
     inkscape:zoom="1.4142136"
     inkscape:cx="38.537319"
     inkscape:cy="218.14244"
     inkscape:window-width="1920"
     inkscape:window-height="1009"
     inkscape:window-x="-8"
     inkscape:window-y="-8"
     inkscape:window-maximized="1"
     inkscape:current-layer="g3"
     inkscape:lockguides="true" />
  <defs
     id="defs2">
    <rect
       x="22"
       y="14"
       width="319"
       height="74"
       id="rect5" />
    <rect
       x="-12"
       y="47"
       width="101"
       height="13"
       id="rect4" />
    <rect
       x="10"
       y="40"
       width="398"
       height="100"
       id="rect1" />
    <inkscape:path-effect
       effect="powerstroke"
       message=""
       id="path-effect67"
       is_visible="true"
       lpeversion="1.3"
       scale_width="1"
       interpolator_type="CentripetalCatmullRom"
       interpolator_beta="0.75"
       start_linecap_type="round"
       end_linecap_type="round"
       offset_points="60.321747,4.7583643"
       linejoin_type="spiro"
       miter_limit="4"
       not_jump="true"
       sort_points="true" />
    <inkscape:path-effect
       effect="simplify"
       id="path-effect66"
       is_visible="true"
       lpeversion="1.3"
       threshold="0.012"
       steps="1"
       smooth_angles="0"
       helper_size="0"
       simplify_individual_paths="false"
       simplify_just_coalesce="false"
       step="1" />
    <inkscape:path-effect
       effect="powerstroke"
       message=""
       id="path-effect65"
       is_visible="true"
       lpeversion="1.3"
       scale_width="1"
       interpolator_type="CentripetalCatmullRom"
       interpolator_beta="0.75"
       start_linecap_type="round"
       end_linecap_type="round"
       offset_points="37.034848,4.7583643"
       linejoin_type="spiro"
       miter_limit="4"
       not_jump="true"
       sort_points="true" />
    <inkscape:path-effect
       effect="simplify"
       id="path-effect64"
       is_visible="true"
       lpeversion="1.3"
       threshold="0.012"
       steps="1"
       smooth_angles="0"
       helper_size="0"
       simplify_individual_paths="false"
       simplify_just_coalesce="false"
       step="1" />
    <inkscape:path-effect
       effect="powerstroke"
       message=""
       id="path-effect63"
       is_visible="true"
       lpeversion="1.3"
       scale_width="1"
       interpolator_type="CentripetalCatmullRom"
       interpolator_beta="0.75"
       start_linecap_type="round"
       end_linecap_type="round"
       offset_points="59.724501,4.7583643"
       linejoin_type="spiro"
       miter_limit="4"
       not_jump="true"
       sort_points="true" />
    <inkscape:path-effect
       effect="simplify"
       id="path-effect62"
       is_visible="true"
       lpeversion="1.3"
       threshold="0.012"
       steps="1"
       smooth_angles="0"
       helper_size="0"
       simplify_individual_paths="false"
       simplify_just_coalesce="false"
       step="1" />
    <inkscape:path-effect
       effect="powerstroke"
       message=""
       id="path-effect61"
       is_visible="true"
       lpeversion="1.3"
       scale_width="1"
       interpolator_type="CentripetalCatmullRom"
       interpolator_beta="0.75"
       start_linecap_type="round"
       end_linecap_type="round"
       offset_points="25.141895,4.7583643"
       linejoin_type="spiro"
       miter_limit="4"
       not_jump="true"
       sort_points="true" />
    <inkscape:path-effect
       effect="simplify"
       id="path-effect60"
       is_visible="true"
       lpeversion="1.3"
       threshold="0.012"
       steps="1"
       smooth_angles="0"
       helper_size="0"
       simplify_individual_paths="false"
       simplify_just_coalesce="false"
       step="1" />
    <inkscape:path-effect
       effect="powerstroke"
       message=""
       id="path-effect59"
       is_visible="true"
       lpeversion="1.3"
       scale_width="1"
       interpolator_type="CentripetalCatmullRom"
       interpolator_beta="0.75"
       start_linecap_type="round"
       end_linecap_type="round"
       offset_points="26.079994,4.7583643"
       linejoin_type="spiro"
       miter_limit="4"
       not_jump="true"
       sort_points="true" />
    <inkscape:path-effect
       effect="simplify"
       id="path-effect58"
       is_visible="true"
       lpeversion="1.3"
       threshold="0.012"
       steps="1"
       smooth_angles="0"
       helper_size="0"
       simplify_individual_paths="false"
       simplify_just_coalesce="false"
       step="1" />
    <inkscape:path-effect
       effect="powerstroke"
       message=""
       id="path-effect57"
       is_visible="true"
       lpeversion="1.3"
       scale_width="1"
       interpolator_type="CentripetalCatmullRom"
       interpolator_beta="0.75"
       start_linecap_type="round"
       end_linecap_type="round"
       offset_points="7.8713175,4.7583643"
       linejoin_type="spiro"
       miter_limit="4"
       not_jump="true"
       sort_points="true" />
    <inkscape:path-effect
       effect="simplify"
       id="path-effect56"
       is_visible="true"
       lpeversion="1.3"
       threshold="0.012"
       steps="1"
       smooth_angles="0"
       helper_size="0"
       simplify_individual_paths="false"
       simplify_just_coalesce="false"
       step="1" />
    <inkscape:path-effect
       effect="powerstroke"
       message=""
       id="path-effect55"
       is_visible="true"
       lpeversion="1.3"
       scale_width="1"
       interpolator_type="CentripetalCatmullRom"
       interpolator_beta="0.75"
       start_linecap_type="round"
       end_linecap_type="round"
       offset_points="3.9072511,4.7583643"
       linejoin_type="spiro"
       miter_limit="4"
       not_jump="true"
       sort_points="true" />
    <inkscape:path-effect
       effect="simplify"
       id="path-effect54"
       is_visible="true"
       lpeversion="1.3"
       threshold="0.012"
       steps="1"
       smooth_angles="0"
       helper_size="0"
       simplify_individual_paths="false"
       simplify_just_coalesce="false"
       step="1" />
    <inkscape:path-effect
       effect="powerstroke"
       message=""
       id="path-effect53"
       is_visible="true"
       lpeversion="1.3"
       scale_width="1"
       interpolator_type="CentripetalCatmullRom"
       interpolator_beta="0.75"
       start_linecap_type="round"
       end_linecap_type="round"
       offset_points="5.7968295,4.7583643"
       linejoin_type="spiro"
       miter_limit="4"
       not_jump="true"
       sort_points="true" />
    <inkscape:path-effect
       effect="simplify"
       id="path-effect52"
       is_visible="true"
       lpeversion="1.3"
       threshold="0.012"
       steps="1"
       smooth_angles="0"
       helper_size="0"
       simplify_individual_paths="false"
       simplify_just_coalesce="false"
       step="1" />
    <inkscape:path-effect
       effect="powerstroke"
       message=""
       id="path-effect51"
       is_visible="true"
       lpeversion="1.3"
       scale_width="1"
       interpolator_type="CentripetalCatmullRom"
       interpolator_beta="0.75"
       start_linecap_type="round"
       end_linecap_type="round"
       offset_points="103.8849,4.7583643"
       linejoin_type="spiro"
       miter_limit="4"
       not_jump="true"
       sort_points="true" />
    <inkscape:path-effect
       effect="simplify"
       id="path-effect50"
       is_visible="true"
       lpeversion="1.3"
       threshold="0.012"
       steps="1"
       smooth_angles="0"
       helper_size="0"
       simplify_individual_paths="false"
       simplify_just_coalesce="false"
       step="1" />
    <inkscape:path-effect
       effect="powerstroke"
       message=""
       id="path-effect49"
       is_visible="true"
       lpeversion="1.3"
       scale_width="1"
       interpolator_type="CentripetalCatmullRom"
       interpolator_beta="0.75"
       start_linecap_type="round"
       end_linecap_type="round"
       offset_points="6.7525275,4.7583643"
       linejoin_type="spiro"
       miter_limit="4"
       not_jump="true"
       sort_points="true" />
    <inkscape:path-effect
       effect="simplify"
       id="path-effect48"
       is_visible="true"
       lpeversion="1.3"
       threshold="0.012"
       steps="1"
       smooth_angles="0"
       helper_size="0"
       simplify_individual_paths="false"
       simplify_just_coalesce="false"
       step="1" />
    <inkscape:path-effect
       effect="powerstroke"
       message=""
       id="path-effect47"
       is_visible="true"
       lpeversion="1.3"
       scale_width="1"
       interpolator_type="CentripetalCatmullRom"
       interpolator_beta="0.75"
       start_linecap_type="round"
       end_linecap_type="round"
       offset_points="17.695627,1.6823358"
       linejoin_type="spiro"
       miter_limit="4"
       not_jump="true"
       sort_points="true" />
    <inkscape:path-effect
       effect="simplify"
       id="path-effect46"
       is_visible="true"
       lpeversion="1.3"
       threshold="0.012"
       steps="1"
       smooth_angles="0"
       helper_size="0"
       simplify_individual_paths="false"
       simplify_just_coalesce="false"
       step="1" />
    <inkscape:path-effect
       effect="powerstroke"
       message=""
       id="path-effect45"
       is_visible="true"
       lpeversion="1.3"
       scale_width="1"
       interpolator_type="CentripetalCatmullRom"
       interpolator_beta="0.75"
       start_linecap_type="round"
       end_linecap_type="round"
       offset_points="58.049092,4.7583643"
       linejoin_type="spiro"
       miter_limit="4"
       not_jump="true"
       sort_points="true" />
    <inkscape:path-effect
       effect="simplify"
       id="path-effect44"
       is_visible="true"
       lpeversion="1.3"
       threshold="0.012"
       steps="1"
       smooth_angles="0"
       helper_size="0"
       simplify_individual_paths="false"
       simplify_just_coalesce="false"
       step="1" />
    <inkscape:path-effect
       effect="powerstroke"
       message=""
       id="path-effect43"
       is_visible="true"
       lpeversion="1.3"
       scale_width="1"
       interpolator_type="CentripetalCatmullRom"
       interpolator_beta="0.75"
       start_linecap_type="round"
       end_linecap_type="round"
       offset_points="50.039018,4.7583643"
       linejoin_type="spiro"
       miter_limit="4"
       not_jump="true"
       sort_points="true" />
    <inkscape:path-effect
       effect="simplify"
       id="path-effect42"
       is_visible="true"
       lpeversion="1.3"
       threshold="0.012"
       steps="1"
       smooth_angles="0"
       helper_size="0"
       simplify_individual_paths="false"
       simplify_just_coalesce="false"
       step="1" />
    <inkscape:path-effect
       effect="powerstroke"
       message=""
       id="path-effect41"
       is_visible="true"
       lpeversion="1.3"
       scale_width="1"
       interpolator_type="CentripetalCatmullRom"
       interpolator_beta="0.75"
       start_linecap_type="round"
       end_linecap_type="round"
       offset_points="17.221518,4.7583643"
       linejoin_type="spiro"
       miter_limit="4"
       not_jump="true"
       sort_points="true" />
    <inkscape:path-effect
       effect="simplify"
       id="path-effect40"
       is_visible="true"
       lpeversion="1.3"
       threshold="0.012"
       steps="1"
       smooth_angles="0"
       helper_size="0"
       simplify_individual_paths="false"
       simplify_just_coalesce="false"
       step="1" />
    <inkscape:path-effect
       effect="powerstroke"
       message=""
       id="path-effect39"
       is_visible="true"
       lpeversion="1.3"
       scale_width="1"
       interpolator_type="CentripetalCatmullRom"
       interpolator_beta="0.75"
       start_linecap_type="round"
       end_linecap_type="round"
       offset_points="5.830054,4.7583643"
       linejoin_type="spiro"
       miter_limit="4"
       not_jump="true"
       sort_points="true" />
    <inkscape:path-effect
       effect="simplify"
       id="path-effect38"
       is_visible="true"
       lpeversion="1.3"
       threshold="0.012"
       steps="1"
       smooth_angles="0"
       helper_size="0"
       simplify_individual_paths="false"
       simplify_just_coalesce="false"
       step="1" />
    <inkscape:path-effect
       effect="spiro"
       id="path-effect37"
       is_visible="true"
       lpeversion="1" />
    <inkscape:path-effect
       effect="powerstroke"
       message=""
       id="path-effect36"
       is_visible="true"
       lpeversion="1.3"
       scale_width="1"
       interpolator_type="CentripetalCatmullRom"
       interpolator_beta="0.75"
       start_linecap_type="round"
       end_linecap_type="round"
       offset_points="0.5,0"
       linejoin_type="spiro"
       miter_limit="4"
       not_jump="true"
       sort_points="true" />
    <inkscape:path-effect
       effect="simplify"
       id="path-effect35"
       is_visible="true"
       lpeversion="1.3"
       threshold="0.012"
       steps="1"
       smooth_angles="0"
       helper_size="0"
       simplify_individual_paths="false"
       simplify_just_coalesce="false"
       step="1" />
    <inkscape:path-effect
       effect="powerstroke"
       message=""
       id="path-effect34"
       is_visible="true"
       lpeversion="1.3"
       scale_width="1"
       interpolator_type="CentripetalCatmullRom"
       interpolator_beta="0.75"
       start_linecap_type="round"
       end_linecap_type="round"
       offset_points="33.807939,4.7583643"
       linejoin_type="spiro"
       miter_limit="4"
       not_jump="true"
       sort_points="true" />
    <inkscape:path-effect
       effect="simplify"
       id="path-effect33"
       is_visible="true"
       lpeversion="1.3"
       threshold="0.012"
       steps="1"
       smooth_angles="0"
       helper_size="0"
       simplify_individual_paths="false"
       simplify_just_coalesce="false"
       step="1" />
    <inkscape:path-effect
       effect="powerstroke"
       message=""
       id="path-effect32"
       is_visible="true"
       lpeversion="1.3"
       scale_width="1"
       interpolator_type="CentripetalCatmullRom"
       interpolator_beta="0.75"
       start_linecap_type="round"
       end_linecap_type="round"
       offset_points="37.339297,4.7583643"
       linejoin_type="spiro"
       miter_limit="4"
       not_jump="true"
       sort_points="true" />
    <inkscape:path-effect
       effect="simplify"
       id="path-effect31"
       is_visible="true"
       lpeversion="1.3"
       threshold="0.012"
       steps="1"
       smooth_angles="0"
       helper_size="0"
       simplify_individual_paths="false"
       simplify_just_coalesce="false"
       step="1" />
    <inkscape:path-effect
       effect="powerstroke"
       message=""
       id="path-effect30"
       is_visible="true"
       lpeversion="1.3"
       scale_width="1"
       interpolator_type="CentripetalCatmullRom"
       interpolator_beta="0.75"
       start_linecap_type="round"
       end_linecap_type="round"
       offset_points="14.777125,4.7583643"
       linejoin_type="spiro"
       miter_limit="4"
       not_jump="true"
       sort_points="true" />
    <inkscape:path-effect
       effect="simplify"
       id="path-effect29"
       is_visible="true"
       lpeversion="1.3"
       threshold="0.012"
       steps="1"
       smooth_angles="0"
       helper_size="0"
       simplify_individual_paths="false"
       simplify_just_coalesce="false"
       step="1" />
    <inkscape:path-effect
       effect="powerstroke"
       message=""
       id="path-effect28"
       is_visible="true"
       lpeversion="1.3"
       scale_width="1"
       interpolator_type="CentripetalCatmullRom"
       interpolator_beta="0.75"
       start_linecap_type="round"
       end_linecap_type="round"
       offset_points="26.148287,4.7583643"
       linejoin_type="spiro"
       miter_limit="4"
       not_jump="true"
       sort_points="true" />
    <inkscape:path-effect
       effect="simplify"
       id="path-effect27"
       is_visible="true"
       lpeversion="1.3"
       threshold="0.012"
       steps="1"
       smooth_angles="0"
       helper_size="0"
       simplify_individual_paths="false"
       simplify_just_coalesce="false"
       step="1" />
    <inkscape:path-effect
       effect="powerstroke"
       message=""
       id="path-effect26"
       is_visible="true"
       lpeversion="1.3"
       scale_width="1"
       interpolator_type="CentripetalCatmullRom"
       interpolator_beta="0.75"
       start_linecap_type="round"
       end_linecap_type="round"
       offset_points="53.946707,4.7583643"
       linejoin_type="spiro"
       miter_limit="4"
       not_jump="true"
       sort_points="true" />
    <inkscape:path-effect
       effect="simplify"
       id="path-effect25"
       is_visible="true"
       lpeversion="1.3"
       threshold="0.012"
       steps="1"
       smooth_angles="0"
       helper_size="0"
       simplify_individual_paths="false"
       simplify_just_coalesce="false"
       step="1" />
    <inkscape:path-effect
       effect="powerstroke"
       message=""
       id="path-effect24"
       is_visible="true"
       lpeversion="1.3"
       scale_width="1"
       interpolator_type="CentripetalCatmullRom"
       interpolator_beta="0.75"
       start_linecap_type="round"
       end_linecap_type="round"
       offset_points="49.831148,4.7583643"
       linejoin_type="spiro"
       miter_limit="4"
       not_jump="true"
       sort_points="true" />
    <inkscape:path-effect
       effect="simplify"
       id="path-effect23"
       is_visible="true"
       lpeversion="1.3"
       threshold="0.012"
       steps="1"
       smooth_angles="0"
       helper_size="0"
       simplify_individual_paths="false"
       simplify_just_coalesce="false"
       step="1" />
    <inkscape:path-effect
       effect="powerstroke"
       message=""
       id="path-effect22"
       is_visible="true"
       lpeversion="1.3"
       scale_width="1"
       interpolator_type="CentripetalCatmullRom"
       interpolator_beta="0.75"
       start_linecap_type="round"
       end_linecap_type="round"
       offset_points="28.105228,4.7583643"
       linejoin_type="spiro"
       miter_limit="4"
       not_jump="true"
       sort_points="true" />
    <inkscape:path-effect
       effect="simplify"
       id="path-effect21"
       is_visible="true"
       lpeversion="1.3"
       threshold="0.012"
       steps="1"
       smooth_angles="0"
       helper_size="0"
       simplify_individual_paths="false"
       simplify_just_coalesce="false"
       step="1" />
    <inkscape:path-effect
       effect="powerstroke"
       message=""
       id="path-effect20"
       is_visible="true"
       lpeversion="1.3"
       scale_width="1"
       interpolator_type="CentripetalCatmullRom"
       interpolator_beta="0.75"
       start_linecap_type="round"
       end_linecap_type="round"
       offset_points="27.486685,4.7583643"
       linejoin_type="spiro"
       miter_limit="4"
       not_jump="true"
       sort_points="true" />
    <inkscape:path-effect
       effect="simplify"
       id="path-effect19"
       is_visible="true"
       lpeversion="1.3"
       threshold="0.012"
       steps="1"
       smooth_angles="0"
       helper_size="0"
       simplify_individual_paths="false"
       simplify_just_coalesce="false"
       step="1" />
    <inkscape:path-effect
       effect="powerstroke"
       message=""
       id="path-effect18"
       is_visible="true"
       lpeversion="1.3"
       scale_width="1"
       interpolator_type="CentripetalCatmullRom"
       interpolator_beta="0.75"
       start_linecap_type="round"
       end_linecap_type="round"
       offset_points="24.793864,4.7583643"
       linejoin_type="spiro"
       miter_limit="4"
       not_jump="true"
       sort_points="true" />
    <inkscape:path-effect
       effect="simplify"
       id="path-effect17"
       is_visible="true"
       lpeversion="1.3"
       threshold="0.012"
       steps="1"
       smooth_angles="0"
       helper_size="0"
       simplify_individual_paths="false"
       simplify_just_coalesce="false"
       step="1" />
    <inkscape:path-effect
       effect="powerstroke"
       message=""
       id="path-effect16"
       is_visible="true"
       lpeversion="1.3"
       scale_width="1"
       interpolator_type="CentripetalCatmullRom"
       interpolator_beta="0.75"
       start_linecap_type="round"
       end_linecap_type="round"
       offset_points="20.44568,4.7583643"
       linejoin_type="spiro"
       miter_limit="4"
       not_jump="true"
       sort_points="true" />
    <inkscape:path-effect
       effect="simplify"
       id="path-effect15"
       is_visible="true"
       lpeversion="1.3"
       threshold="0.012"
       steps="1"
       smooth_angles="0"
       helper_size="0"
       simplify_individual_paths="false"
       simplify_just_coalesce="false"
       step="1" />
    <inkscape:path-effect
       effect="powerstroke"
       message=""
       id="path-effect14"
       is_visible="true"
       lpeversion="1.3"
       scale_width="1"
       interpolator_type="CentripetalCatmullRom"
       interpolator_beta="0.75"
       start_linecap_type="round"
       end_linecap_type="round"
       offset_points="24.584461,4.7583643"
       linejoin_type="spiro"
       miter_limit="4"
       not_jump="true"
       sort_points="true" />
    <inkscape:path-effect
       effect="simplify"
       id="path-effect13"
       is_visible="true"
       lpeversion="1.3"
       threshold="0.012"
       steps="1"
       smooth_angles="0"
       helper_size="0"
       simplify_individual_paths="false"
       simplify_just_coalesce="false"
       step="1" />
    <inkscape:path-effect
       effect="powerstroke"
       message=""
       id="path-effect12"
       is_visible="true"
       lpeversion="1.3"
       scale_width="1"
       interpolator_type="CentripetalCatmullRom"
       interpolator_beta="0.75"
       start_linecap_type="round"
       end_linecap_type="round"
       offset_points="18.213182,4.7583643"
       linejoin_type="spiro"
       miter_limit="4"
       not_jump="true"
       sort_points="true" />
    <inkscape:path-effect
       effect="simplify"
       id="path-effect11"
       is_visible="true"
       lpeversion="1.3"
       threshold="0.012"
       steps="1"
       smooth_angles="0"
       helper_size="0"
       simplify_individual_paths="false"
       simplify_just_coalesce="false"
       step="1" />
    <inkscape:path-effect
       effect="powerstroke"
       message=""
       id="path-effect10"
       is_visible="true"
       lpeversion="1.3"
       scale_width="1"
       interpolator_type="CentripetalCatmullRom"
       interpolator_beta="0.75"
       start_linecap_type="round"
       end_linecap_type="round"
       offset_points="13.421596,4.7583643"
       linejoin_type="spiro"
       miter_limit="4"
       not_jump="true"
       sort_points="true" />
    <inkscape:path-effect
       effect="simplify"
       id="path-effect9"
       is_visible="true"
       lpeversion="1.3"
       threshold="0.012"
       steps="1"
       smooth_angles="0"
       helper_size="0"
       simplify_individual_paths="false"
       simplify_just_coalesce="false"
       step="1" />
    <inkscape:path-effect
       effect="powerstroke"
       message=""
       id="path-effect8"
       is_visible="true"
       lpeversion="1.3"
       scale_width="1"
       interpolator_type="CentripetalCatmullRom"
       interpolator_beta="0.75"
       start_linecap_type="round"
       end_linecap_type="round"
       offset_points="6.5486854,4.7583643"
       linejoin_type="spiro"
       miter_limit="4"
       not_jump="true"
       sort_points="true" />
    <inkscape:path-effect
       effect="simplify"
       id="path-effect7"
       is_visible="true"
       lpeversion="1.3"
       threshold="0.012"
       steps="1"
       smooth_angles="0"
       helper_size="0"
       simplify_individual_paths="false"
       simplify_just_coalesce="false"
       step="1" />
    <inkscape:path-effect
       effect="powerstroke"
       message=""
       id="path-effect6"
       is_visible="true"
       lpeversion="1.3"
       scale_width="1"
       interpolator_type="CentripetalCatmullRom"
       interpolator_beta="0.75"
       start_linecap_type="round"
       end_linecap_type="round"
       offset_points="88.074957,4.7583643"
       linejoin_type="spiro"
       miter_limit="4"
       not_jump="true"
       sort_points="true" />
    <inkscape:path-effect
       effect="simplify"
       id="path-effect5"
       is_visible="true"
       lpeversion="1.3"
       threshold="0.012"
       steps="1"
       smooth_angles="0"
       helper_size="0"
       simplify_individual_paths="false"
       simplify_just_coalesce="false"
       step="1" />
    <inkscape:path-effect
       effect="powerstroke"
       message=""
       id="path-effect4"
       is_visible="true"
       lpeversion="1.3"
       scale_width="1"
       interpolator_type="CentripetalCatmullRom"
       interpolator_beta="0.75"
       start_linecap_type="round"
       end_linecap_type="round"
       offset_points="9.0199164,4.7583643"
       linejoin_type="spiro"
       miter_limit="4"
       not_jump="true"
       sort_points="true" />
    <inkscape:path-effect
       effect="simplify"
       id="path-effect3"
       is_visible="true"
       lpeversion="1.3"
       threshold="0.012"
       steps="1"
       smooth_angles="0"
       helper_size="0"
       simplify_individual_paths="false"
       simplify_just_coalesce="false"
       step="1" />
    <linearGradient
       id="g"
       x1="150.0933"
       y1="68.224229"
       x2="450.27991"
       y2="368.41084"
       gradientTransform="scale(0.85280287,1.1726039)"
       gradientUnits="userSpaceOnUse">
      <stop
         offset="0%"
         stop-color="#5B5FFF"
         id="stop1" />
      <stop
         offset="100%"
         stop-color="#00AEEF"
         id="stop2" />
    </linearGradient>
  </defs>
  <!-- Icono: Pin + evento -->
  <g
     transform="matrix(1.4273967,0,0,1.4273967,-111.17269,-108.90549)"
     id="g3">
    <!-- Pin -->
    <path
       d="m 256,80 c -76,0 -128,52 -128,128 0,92 128,224 128,224 0,0 128,-132 128,-224 C 384,132 332,80 256,80 Z"
       fill="url(#g)"
       id="path2"
       style="fill:url(#g)" />
    <!-- Punto central -->
    <ellipse
       cx="256.00912"
       cy="209.28212"
       fill="#ffffff"
       id="circle2"
       rx="104.65536"
       ry="79.425346"
       style="stroke-width:2.07208" />
    <!-- Detalle evento (líneas tipo calendario) -->
    <rect
       x="187.953"
       y="177.38963"
       width="113.5614"
       height="8.7005768"
       rx="5.4843812"
       fill="#5b5fff"
       id="rect2"
       style="stroke-width:1.48508" />
    <rect
       x="206.98271"
       y="211.40115"
       width="69.424194"
       height="8.7005758"
       rx="5.7164054"
       fill="#00aeef"
       id="rect3"
       style="stroke-width:1.37389" />
  </g>
  <!-- Wordmark -->
  <path
     d="m 256.77797,225.9333 c 0.0226,0.0345 0.0463,0.0706 0.0709,0.10821 0.0118,0.018 0.0237,0.0359 0.0357,0.0538 0.0234,0.0346 0.0476,0.0706 0.0727,0.10775 0.0119,0.0176 0.0238,0.0351 0.0359,0.0525 0.0241,0.0347 0.0489,0.0704 0.0745,0.10728 0.0119,0.0172 0.0239,0.0343 0.0361,0.0513 0.0247,0.0347 0.0502,0.0703 0.0763,0.1068 0.012,0.0168 0.024,0.0335 0.0362,0.0501 0.0254,0.0346 0.0514,0.0701 0.078,0.10631 0.012,0.0164 0.0241,0.0327 0.0364,0.0489 0.026,0.0345 0.0526,0.0698 0.0797,0.10581 0.012,0.016 0.0242,0.0319 0.0365,0.0477 0.0266,0.0344 0.0538,0.0695 0.0815,0.10531 0.0121,0.0156 0.0242,0.0311 0.0365,0.0466 0.0273,0.0343 0.055,0.0693 0.0832,0.10479 0.0121,0.0152 0.0243,0.0304 0.0366,0.0455 0.0278,0.0342 0.0561,0.069 0.0849,0.10426 0.0121,0.0149 0.0243,0.0297 0.0366,0.0444 0.0284,0.0341 0.0573,0.0687 0.0865,0.10373 0.0121,0.0145 0.0243,0.029 0.0366,0.0434 0.029,0.0339 0.0584,0.0683 0.0882,0.10319 0.0121,0.0142 0.0243,0.0283 0.0366,0.0424 0.0296,0.0338 0.0595,0.068 0.0898,0.10263 0.0121,0.0139 0.0243,0.0276 0.0366,0.0414 0.0301,0.0336 0.0606,0.0677 0.0915,0.10207 0.0121,0.0135 0.0243,0.027 0.0366,0.0404 0.0307,0.0335 0.0617,0.0673 0.0931,0.1015 0.0121,0.0132 0.0243,0.0264 0.0366,0.0394 0.0312,0.0333 0.0628,0.0669 0.0947,0.10092 0.0121,0.0129 0.0243,0.0257 0.0365,0.0385 0.0318,0.0331 0.0639,0.0666 0.0962,0.10034 0.0121,0.0126 0.0242,0.0251 0.0365,0.0376 0.0323,0.0329 0.0649,0.0662 0.0978,0.0998 0.0121,0.0123 0.0242,0.0245 0.0364,0.0367 0.0328,0.0328 0.0659,0.0658 0.0993,0.0991 0.012,0.012 0.0241,0.024 0.0363,0.0359 0.0334,0.0326 0.067,0.0654 0.10086,0.0985 0.012,0.0117 0.0241,0.0234 0.0362,0.035 0.0339,0.0324 0.068,0.065 0.10237,0.0979 0.012,0.0115 0.0241,0.0229 0.0362,0.0342 0.0344,0.0322 0.069,0.0646 0.10386,0.0973 0.012,0.0112 0.024,0.0224 0.0361,0.0334 0.0349,0.032 0.07,0.0642 0.10534,0.0966 0.0119,0.0109 0.0239,0.0218 0.036,0.0327 0.0354,0.0318 0.071,0.0638 0.1068,0.096 0.0119,0.0107 0.0239,0.0213 0.0359,0.0319 0.0359,0.0316 0.0719,0.0634 0.10824,0.0953 0.0119,0.0105 0.0238,0.0208 0.0358,0.0312 0.0363,0.0314 0.0729,0.0629 0.10967,0.0947 0.0118,0.0102 0.0237,0.0204 0.0356,0.0305 0.0368,0.0311 0.0738,0.0625 0.11108,0.094 0.0118,0.01 0.0237,0.0199 0.0356,0.0298 0.0373,0.0309 0.0748,0.062 0.11248,0.0933 0.0118,0.01 0.0236,0.0195 0.0354,0.0291 0.0378,0.0307 0.0757,0.0616 0.11386,0.0926 0.0117,0.01 0.0235,0.019 0.0353,0.0284 0.0382,0.0305 0.0766,0.0611 0.11522,0.0919 0.0117,0.009 0.0234,0.0186 0.0352,0.0278 0.0387,0.0303 0.0775,0.0607 0.11656,0.0912 0.0117,0.009 0.0234,0.0182 0.0351,0.0272 0.0391,0.03 0.0784,0.0602 0.11789,0.0905 0.0116,0.009 0.0233,0.0178 0.035,0.0266 0.0396,0.0298 0.0793,0.0597 0.1192,0.0897 0.0116,0.009 0.0232,0.0174 0.0349,0.026 0.04,0.0295 0.0802,0.0592 0.1205,0.089 0.0115,0.009 0.0231,0.017 0.0348,0.0254 0.0404,0.0293 0.081,0.0587 0.12177,0.0882 0.0115,0.008 0.0231,0.0166 0.0347,0.0249 0.0409,0.0291 0.0819,0.0582 0.12304,0.0875 0.0115,0.008 0.023,0.0163 0.0346,0.0243 0.0413,0.0288 0.0827,0.0577 0.12429,0.0867 0.0115,0.008 0.0229,0.0159 0.0345,0.0238 0.0417,0.0286 0.0835,0.0572 0.12552,0.0859 0.0114,0.008 0.0229,0.0156 0.0344,0.0233 0.0421,0.0283 0.0844,0.0567 0.12673,0.0852 0.0114,0.008 0.0228,0.0152 0.0343,0.0228 0.0425,0.028 0.0852,0.0562 0.12793,0.0844 0.0114,0.007 0.0227,0.0149 0.0342,0.0223 0.0429,0.0278 0.0859,0.0556 0.12911,0.0836 0.0113,0.007 0.0227,0.0146 0.0341,0.0219 0.0433,0.0275 0.0867,0.0551 0.13027,0.0828 0.0113,0.007 0.0226,0.0143 0.034,0.0214 0.0437,0.0272 0.0875,0.0545 0.13143,0.0819 0.0113,0.007 0.0226,0.014 0.0339,0.0209 0.0441,0.027 0.0883,0.054 0.13256,0.0811 0.0113,0.007 0.0225,0.0137 0.0338,0.0205 0.0444,0.0267 0.089,0.0534 0.13368,0.0803 0.0112,0.007 0.0225,0.0134 0.0337,0.0201 0.0448,0.0264 0.0898,0.0529 0.13478,0.0794 0.0112,0.007 0.0224,0.0132 0.0337,0.0197 0.0452,0.0261 0.0905,0.0523 0.13586,0.0786 0.0112,0.006 0.0224,0.0129 0.0336,0.0193 0.0455,0.0258 0.0912,0.0517 0.13692,0.0777 0.0112,0.006 0.0223,0.0126 0.0335,0.0189 0.0459,0.0256 0.0919,0.0512 0.13797,0.0768 0.0111,0.006 0.0223,0.0124 0.0335,0.0185 0.0462,0.0253 0.0926,0.0506 0.139,0.076 0.0111,0.006 0.0223,0.0121 0.0334,0.0181 0.0466,0.025 0.0933,0.05 0.14003,0.0751 0.0111,0.006 0.0222,0.0119 0.0334,0.0177 0.0469,0.0247 0.094,0.0494 0.14103,0.0742 0.0111,0.006 0.0222,0.0116 0.0333,0.0174 0.0473,0.0244 0.0946,0.0488 0.14201,0.0733 0.0111,0.006 0.0222,0.0114 0.0333,0.017 0.0476,0.0241 0.0953,0.0482 0.14298,0.0723 0.0111,0.006 0.0222,0.0112 0.0333,0.0167 0.0479,0.0238 0.0959,0.0476 0.14393,0.0714 0.011,0.005 0.0221,0.0109 0.0332,0.0163 0.0482,0.0235 0.0965,0.047 0.14487,0.0705 0.011,0.005 0.0221,0.0107 0.0332,0.016 0.0485,0.0231 0.0971,0.0463 0.14579,0.0695 0.011,0.005 0.0221,0.0105 0.0332,0.0157 0.0489,0.0228 0.0977,0.0457 0.14669,0.0686 0.011,0.005 0.0221,0.0103 0.0332,0.0153 0.0491,0.0225 0.0983,0.0451 0.14757,0.0676 0.011,0.005 0.0221,0.0101 0.0332,0.015 0.0494,0.0222 0.0989,0.0444 0.14845,0.0666 0.011,0.005 0.0221,0.01 0.0332,0.0147 0.0497,0.0219 0.0995,0.0438 0.1493,0.0657 0.011,0.005 0.0221,0.01 0.0331,0.0144 0.0161,0.007 0.0322,0.0139 0.0483,0.0208 0.0337,0.0145 0.0676,0.0291 0.10183,0.0439 0.011,0.005 0.0221,0.009 0.0332,0.0141 0.0498,0.021 0.10013,0.0422 0.15095,0.0637 0.011,0.005 0.0221,0.009 0.0332,0.0139 0.0501,0.0207 0.10069,0.0416 0.15176,0.0627 0.011,0.005 0.0221,0.009 0.0332,0.0136 0.0504,0.0204 0.10124,0.0409 0.15255,0.0617 0.0111,0.004 0.0221,0.009 0.0332,0.0133 0.0507,0.02 0.10177,0.0403 0.15332,0.0606 0.0111,0.004 0.0221,0.009 0.0332,0.013 0.0509,0.0197 0.10229,0.0396 0.15407,0.0596 0.0111,0.004 0.0222,0.009 0.0333,0.0127 0.0512,0.0194 0.10281,0.0389 0.15481,0.0586 0.0111,0.004 0.0222,0.008 0.0333,0.0124 0.0515,0.019 0.1033,0.0382 0.15553,0.0575 0.0111,0.004 0.0222,0.008 0.0333,0.0122 0.0517,0.0187 0.10379,0.0375 0.15624,0.0564 0.0111,0.004 0.0222,0.008 0.0334,0.0119 0.0519,0.0183 0.10426,0.0368 0.15692,0.0554 0.0111,0.004 0.0223,0.008 0.0335,0.0117 0.0522,0.018 0.10472,0.0361 0.1576,0.0543 0.0111,0.004 0.0223,0.008 0.0335,0.0114 0.0524,0.0176 0.10517,0.0354 0.15825,0.0532 0.0112,0.004 0.0224,0.007 0.0336,0.0112 0.0526,0.0173 0.10561,0.0346 0.15889,0.0521 0.0112,0.004 0.0224,0.007 0.0336,0.0109 0.0529,0.0169 0.10604,0.0339 0.15952,0.051 0.0112,0.004 0.0225,0.007 0.0337,0.0106 0.0531,0.0165 0.10645,0.0332 0.16012,0.0499 0.0112,0.004 0.0225,0.007 0.0338,0.0104 0.0533,0.0162 0.10686,0.0324 0.16072,0.0488 0.0113,0.003 0.0226,0.007 0.0339,0.0101 0.0535,0.0158 0.10725,0.0317 0.16129,0.0476 0.0113,0.003 0.0226,0.007 0.034,0.01 0.0537,0.0154 0.10763,0.0309 0.16185,0.0465 0.0113,0.003 0.0227,0.006 0.0341,0.01 0.0539,0.015 0.108,0.0302 0.16239,0.0453 0.0114,0.003 0.0228,0.006 0.0342,0.009 0.054,0.0147 0.10836,0.0294 0.16292,0.0442 0.0114,0.003 0.0228,0.006 0.0343,0.009 0.0542,0.0143 0.10871,0.0286 0.16343,0.043 0.0114,0.003 0.0229,0.006 0.0344,0.009 0.0544,0.0139 0.10904,0.0278 0.16392,0.0419 0.0115,0.003 0.023,0.006 0.0345,0.009 0.0546,0.0135 0.10937,0.0271 0.1644,0.0407 0.0115,0.003 0.0231,0.006 0.0346,0.008 0.0547,0.0131 0.10968,0.0263 0.16485,0.0395 0.0116,0.003 0.0232,0.006 0.0348,0.008 0.0549,0.0127 0.10998,0.0255 0.1653,0.0383 0.0116,0.003 0.0233,0.005 0.0349,0.008 0.055,0.0123 0.11028,0.0246 0.16573,0.037 0.0117,0.003 0.0233,0.005 0.035,0.008 0.0552,0.0119 0.11056,0.0238 0.16614,0.0358 0.0117,0.003 0.0234,0.005 0.0352,0.007 0.0553,0.0115 0.11082,0.023 0.16653,0.0346 0.0118,0.002 0.0235,0.005 0.0353,0.007 0.0554,0.0111 0.11108,0.0222 0.16691,0.0334 0.0118,0.002 0.0236,0.005 0.0355,0.007 0.0556,0.0107 0.11132,0.0214 0.16726,0.0321 0.0119,0.002 0.0238,0.005 0.0357,0.007 0.0557,0.0103 0.11156,0.0205 0.16762,0.0309 0.0119,0.002 0.0239,0.004 0.0358,0.006 0.0558,0.01 0.11179,0.0197 0.16794,0.0296 0.012,0.002 0.024,0.004 0.036,0.006 0.0559,0.009 0.112,0.0189 0.16826,0.0283 0.012,0.002 0.0241,0.004 0.0362,0.006 0.056,0.009 0.1122,0.018 0.16855,0.027 0.0121,0.002 0.0242,0.004 0.0363,0.006 0.0561,0.009 0.11239,0.0171 0.16882,0.0257 0.0122,0.002 0.0243,0.004 0.0365,0.005 0.0562,0.008 0.11257,0.0163 0.16909,0.0244 0.0122,0.002 0.0245,0.003 0.0367,0.005 0.0563,0.008 0.11274,0.0154 0.16933,0.0231 0.0123,0.002 0.0246,0.003 0.0369,0.005 0.0564,0.007 0.11289,0.0145 0.16956,0.0218 0.0124,0.002 0.0247,0.003 0.0371,0.005 0.0564,0.007 0.11304,0.0136 0.16978,0.0205 0.0124,0.001 0.0249,0.003 0.0373,0.004 0.0565,0.006 0.11318,0.0128 0.16998,0.0191 0.0125,0.001 0.025,0.003 0.0375,0.004 0.0566,0.006 0.11331,0.0118 0.17016,0.0178 0.0126,0.001 0.0252,0.003 0.0378,0.004 0.0566,0.005 0.11342,0.011 0.17033,0.0164 0.0126,0.001 0.0253,0.002 0.038,0.004 0.0567,0.005 0.11352,0.01 0.17048,0.0151 0.0127,0.001 0.0255,0.002 0.0382,0.003 0.0567,0.005 0.11361,0.009 0.1706,0.0137 0.0128,0.001 0.0256,0.002 0.0384,0.003 0.0568,0.004 0.11369,0.008 0.17072,0.0123 0.0129,9.3e-4 0.0258,0.002 0.0387,0.003 0.0568,0.004 0.11377,0.007 0.17082,0.0109 0.013,8.3e-4 0.0259,0.002 0.0389,0.002 0.0568,0.003 0.11382,0.006 0.1709,0.01 0.013,7.3e-4 0.0261,0.001 0.0391,0.002 0.0569,0.003 0.11387,0.005 0.17097,0.008 0.0131,6.2e-4 0.0263,0.001 0.0394,0.002 0.0569,0.002 0.11391,0.004 0.17102,0.007 0.0132,5.2e-4 0.0264,9.8e-4 0.0396,0.001 0.0569,0.002 0.11393,0.004 0.17105,0.005 0.0133,4.2e-4 0.0266,7.7e-4 0.0399,0.001 0.0569,0.001 0.11395,0.003 0.17107,0.004 0.0134,3e-4 0.0268,5.4e-4 0.0402,7.3e-4 0.0569,8e-4 0.11395,0.002 0.17107,0.002 0.0135,1.9e-4 0.0269,3.2e-4 0.0404,4e-4 0.0569,3.1e-4 0.11394,6.3e-4 0.17105,9.5e-4 0.0136,7e-5 0.0271,9e-5 0.0407,5e-5 0.0569,-1.7e-4 0.11392,-3.4e-4 0.17102,-5.1e-4 0.0137,-4e-5 0.0273,-1.4e-4 0.0409,-3e-4 0.0569,-6.6e-4 0.11389,-0.001 0.17097,-0.002 0.0137,-1.6e-4 0.0275,-3.8e-4 0.0412,-6.5e-4 0.0569,-0.001 0.11385,-0.002 0.1709,-0.003 0.0138,-2.8e-4 0.0277,-6.2e-4 0.0415,-0.001 0.0569,-0.002 0.1138,-0.003 0.17082,-0.005 0.0139,-4.1e-4 0.0278,-8.7e-4 0.0418,-0.001 0.0568,-0.002 0.11373,-0.004 0.17072,-0.006 0.014,-5.3e-4 0.028,-0.001 0.042,-0.002 0.0568,-0.003 0.11366,-0.005 0.17061,-0.008 0.0141,-6.6e-4 0.0282,-0.001 0.0423,-0.002 0.0567,-0.003 0.11358,-0.006 0.17048,-0.009 0.0142,-7.9e-4 0.0284,-0.002 0.0426,-0.003 0.0567,-0.004 0.11349,-0.007 0.17033,-0.011 0.0143,-9.3e-4 0.0286,-0.002 0.0429,-0.003 0.0567,-0.004 0.11338,-0.008 0.17017,-0.0125 0.0144,-0.001 0.0288,-0.002 0.0431,-0.003 0.0566,-0.005 0.11326,-0.009 0.16999,-0.0141 0.0145,-0.001 0.029,-0.002 0.0434,-0.004 0.0565,-0.005 0.11313,-0.0104 0.16979,-0.0156 0.0146,-0.001 0.0292,-0.003 0.0437,-0.004 0.0565,-0.006 0.11299,-0.0114 0.16957,-0.0172 0.0147,-0.001 0.0293,-0.003 0.044,-0.005 0.0564,-0.006 0.11284,-0.0125 0.16935,-0.0188 0.0148,-0.002 0.0295,-0.003 0.0443,-0.005 0.0563,-0.007 0.11268,-0.0135 0.16911,-0.0203 0.0149,-0.002 0.0297,-0.004 0.0446,-0.006 0.0562,-0.007 0.11251,-0.0146 0.16884,-0.0219 0.015,-0.002 0.0299,-0.004 0.0448,-0.006 0.0561,-0.008 0.11233,-0.0157 0.16856,-0.0235 0.0151,-0.002 0.0301,-0.004 0.0451,-0.007 0.056,-0.008 0.11213,-0.0167 0.16827,-0.0251 0.0152,-0.002 0.0303,-0.005 0.0454,-0.007 0.0559,-0.009 0.11192,-0.0178 0.16795,-0.0267 0.0152,-0.002 0.0305,-0.005 0.0457,-0.007 0.0558,-0.009 0.11171,-0.0189 0.16763,-0.0283 0.0153,-0.003 0.0307,-0.005 0.046,-0.008 0.0557,-0.01 0.11148,-0.02 0.16728,-0.03 0.0154,-0.003 0.0308,-0.006 0.0462,-0.009 0.0556,-0.0105 0.11125,-0.0211 0.16693,-0.0316 0.0155,-0.003 0.031,-0.006 0.0465,-0.009 0.0555,-0.0111 0.11099,-0.0222 0.16655,-0.0333 0.0156,-0.003 0.0312,-0.006 0.0468,-0.01 0.0553,-0.0116 0.11074,-0.0233 0.16616,-0.0349 0.0157,-0.003 0.0314,-0.007 0.047,-0.0101 0.0552,-0.0122 0.11047,-0.0244 0.16575,-0.0366 0.0158,-0.003 0.0315,-0.007 0.0473,-0.0107 0.0551,-0.0128 0.11018,-0.0255 0.16532,-0.0383 0.0159,-0.004 0.0317,-0.007 0.0475,-0.0113 0.0549,-0.0133 0.10989,-0.0266 0.16488,-0.04 0.0159,-0.004 0.0319,-0.008 0.0478,-0.0118 0.0548,-0.0139 0.10958,-0.0278 0.16441,-0.0417 0.016,-0.004 0.032,-0.008 0.048,-0.0124 0.0546,-0.0144 0.10927,-0.0289 0.16394,-0.0434 0.0161,-0.004 0.0322,-0.009 0.0482,-0.013 0.0545,-0.015 0.10895,-0.03 0.16345,-0.0451 0.0162,-0.004 0.0323,-0.009 0.0485,-0.0137 0.0543,-0.0156 0.10861,-0.0312 0.16294,-0.0468 0.0163,-0.005 0.0325,-0.009 0.0487,-0.0143 0.0541,-0.0162 0.10826,-0.0323 0.16242,-0.0485 0.0163,-0.005 0.0326,-0.01 0.0489,-0.0149 0.0539,-0.0168 0.1079,-0.0335 0.16187,-0.0503 0.0164,-0.005 0.0328,-0.0103 0.0491,-0.0155 0.0538,-0.0173 0.10753,-0.0347 0.16132,-0.052 0.0165,-0.005 0.0329,-0.0107 0.0493,-0.0162 0.0536,-0.0179 0.10715,-0.0358 0.16075,-0.0538 0.0165,-0.006 0.033,-0.0111 0.0495,-0.0169 0.0534,-0.0185 0.10677,-0.037 0.16016,-0.0555 0.0166,-0.006 0.0331,-0.0116 0.0496,-0.0175 0.0532,-0.0191 0.10635,-0.0382 0.15955,-0.0573 0.0166,-0.006 0.0332,-0.012 0.0498,-0.0182 0.053,-0.0197 0.10594,-0.0394 0.15892,-0.0591 0.0167,-0.006 0.0333,-0.0125 0.0499,-0.0189 0.0528,-0.0203 0.10552,-0.0406 0.15829,-0.0609 0.0167,-0.006 0.0334,-0.013 0.0501,-0.0196 0.0525,-0.0209 0.10508,-0.0418 0.15763,-0.0627 0.0168,-0.007 0.0335,-0.0134 0.0502,-0.0203 0.0523,-0.0215 0.10464,-0.043 0.15696,-0.0645 0.0168,-0.007 0.0336,-0.0139 0.0503,-0.021 0.0521,-0.0221 0.10418,-0.0442 0.15627,-0.0663 0.0168,-0.007 0.0336,-0.0144 0.0504,-0.0217 0.0519,-0.0227 0.10371,-0.0454 0.15557,-0.0681 0.0169,-0.007 0.0337,-0.0149 0.0505,-0.0224 0.0516,-0.0233 0.10324,-0.0466 0.15484,-0.07 0.0169,-0.008 0.0337,-0.0154 0.0505,-0.0232 0.0514,-0.0239 0.10274,-0.0479 0.15411,-0.0718 0.0169,-0.008 0.0337,-0.0159 0.0505,-0.0239 0.0511,-0.0246 0.10225,-0.0491 0.15335,-0.0737 0.0169,-0.008 0.0338,-0.0163 0.0506,-0.0247 0.0509,-0.0252 0.10173,-0.0504 0.15258,-0.0755 0.0169,-0.008 0.0338,-0.0169 0.0506,-0.0254 0.0506,-0.0258 0.10121,-0.0516 0.15179,-0.0774 0.0169,-0.009 0.0338,-0.0174 0.0506,-0.0262 0.0504,-0.0264 0.10068,-0.0529 0.15099,-0.0793 0.0169,-0.009 0.0338,-0.0179 0.0506,-0.0269 0.0501,-0.0271 0.10013,-0.0541 0.15017,-0.0812 0.0169,-0.009 0.0337,-0.0184 0.0505,-0.0277 0.0498,-0.0277 0.0996,-0.0554 0.14934,-0.0831 0.0169,-0.009 0.0337,-0.0189 0.0504,-0.0285 0.0495,-0.0283 0.099,-0.0567 0.14848,-0.085 0.0168,-0.01 0.0336,-0.0194 0.0503,-0.0292 0.0492,-0.029 0.0984,-0.058 0.14761,-0.0869 0.0168,-0.01 0.0336,-0.0199 0.0502,-0.03 0.0489,-0.0296 0.0978,-0.0592 0.14673,-0.0888 0.0168,-0.0102 0.0335,-0.0204 0.0501,-0.0308 0.0486,-0.0303 0.0972,-0.0605 0.14583,-0.0908 0.0167,-0.0104 0.0334,-0.0209 0.05,-0.0315 0.0483,-0.0309 0.0966,-0.0618 0.14491,-0.0927 0.0167,-0.0107 0.0333,-0.0214 0.0498,-0.0323 0.048,-0.0316 0.096,-0.0631 0.14397,-0.0947 0.0166,-0.0109 0.0331,-0.0219 0.0496,-0.0331 0.0477,-0.0322 0.0954,-0.0644 0.14302,-0.0966 0.0165,-0.0112 0.033,-0.0224 0.0494,-0.0338 0.0474,-0.0329 0.0947,-0.0658 0.14205,-0.0986 0.0165,-0.0114 0.0328,-0.0229 0.0491,-0.0346 0.0471,-0.0335 0.0941,-0.0671 0.14107,-0.10058 0.0164,-0.0117 0.0327,-0.0234 0.0489,-0.0353 0.0467,-0.0342 0.0934,-0.0684 0.14007,-0.10256 0.0163,-0.0119 0.0325,-0.0239 0.0486,-0.0361 0.0464,-0.0349 0.0927,-0.0697 0.13906,-0.10457 0.0162,-0.0122 0.0323,-0.0244 0.0483,-0.0368 0.046,-0.0356 0.0921,-0.0711 0.13802,-0.10658 0.0161,-0.0124 0.032,-0.0249 0.048,-0.0375 0.0457,-0.0362 0.0913,-0.0724 0.13697,-0.10859 0.0159,-0.0127 0.0318,-0.0254 0.0476,-0.0382 0.0453,-0.0369 0.0906,-0.0738 0.13591,-0.11061 0.0158,-0.0129 0.0316,-0.0259 0.0472,-0.0389 0.045,-0.0376 0.0899,-0.0751 0.13483,-0.11265 0.0157,-0.0131 0.0313,-0.0263 0.0468,-0.0396 0.0446,-0.0383 0.0892,-0.0765 0.13372,-0.11469 0.0156,-0.0133 0.031,-0.0268 0.0464,-0.0403 0.0442,-0.0389 0.0884,-0.0779 0.13261,-0.11674 0.0154,-0.0136 0.0307,-0.0272 0.046,-0.041 0.0439,-0.0396 0.0877,-0.0792 0.13148,-0.1188 0.0153,-0.0138 0.0304,-0.0277 0.0455,-0.0417 0.0435,-0.0403 0.0869,-0.0806 0.13033,-0.12087 0.0151,-0.014 0.0301,-0.0281 0.045,-0.0423 0.0431,-0.041 0.0862,-0.082 0.12917,-0.12295 0.0149,-0.0142 0.0298,-0.0285 0.0445,-0.0429 0.0427,-0.0417 0.0854,-0.0834 0.12799,-0.12503 0.0148,-0.0144 0.0294,-0.0289 0.044,-0.0436 0.0423,-0.0424 0.0846,-0.0848 0.1268,-0.12713 0.0146,-0.0146 0.0291,-0.0293 0.0435,-0.0441 0.0419,-0.0431 0.0838,-0.0862 0.12557,-0.12924 0.0144,-0.0148 0.0287,-0.0297 0.0429,-0.0447 0.0415,-0.0438 0.083,-0.0876 0.12435,-0.13135 0.0142,-0.015 0.0283,-0.0301 0.0423,-0.0453 0.0411,-0.0445 0.0821,-0.089 0.1231,-0.13346 0.014,-0.0152 0.0279,-0.0305 0.0417,-0.0458 0.0407,-0.0453 0.0813,-0.0905 0.12184,-0.1356 0.0138,-0.0154 0.0275,-0.0308 0.0411,-0.0463 0.0403,-0.046 0.0804,-0.0919 0.12056,-0.13774 0.0136,-0.0155 0.0271,-0.0311 0.0405,-0.0468 0.0398,-0.0467 0.0796,-0.0933 0.11926,-0.13989 0.0134,-0.0157 0.0266,-0.0315 0.0398,-0.0473 0.0394,-0.0474 0.0787,-0.0948 0.11796,-0.14206 0.0131,-0.0158 0.0262,-0.0318 0.0391,-0.0478 0.0389,-0.0481 0.0778,-0.0962 0.11662,-0.14422 0.0129,-0.016 0.0257,-0.032 0.0385,-0.0482 0.0385,-0.0489 0.0769,-0.0977 0.11528,-0.14639 0.0127,-0.0161 0.0253,-0.0323 0.0378,-0.0486 0.038,-0.0496 0.076,-0.0991 0.11392,-0.14858 0.0125,-0.0162 0.0248,-0.0326 0.037,-0.049 0.0376,-0.0503 0.0751,-0.1006 0.11254,-0.15077 0.0122,-0.0164 0.0243,-0.0328 0.0363,-0.0493 0.0371,-0.0511 0.0742,-0.10207 0.11115,-0.15297 0.012,-0.0165 0.0238,-0.033 0.0356,-0.0497 0.0367,-0.0518 0.0732,-0.10356 0.10973,-0.15519 0.0117,-0.0166 0.0234,-0.0333 0.0349,-0.05 0.0362,-0.0526 0.0723,-0.10505 0.10831,-0.15741 0.0115,-0.0167 0.0229,-0.0334 0.0341,-0.0503 0.0357,-0.0533 0.0713,-0.10653 0.10687,-0.15964 0.0112,-0.0168 0.0223,-0.0336 0.0334,-0.0505 0.0352,-0.0541 0.0704,-0.10803 0.10541,-0.16188 0.011,-0.0169 0.0218,-0.0338 0.0326,-0.0508 0.0347,-0.0548 0.0694,-0.10953 0.10394,-0.16412 0.0107,-0.0169 0.0213,-0.0339 0.0318,-0.051 0.0342,-0.0556 0.0684,-0.11105 0.10244,-0.16638 0.0105,-0.017 0.0208,-0.0341 0.0311,-0.0512 0.0337,-0.0563 0.0674,-0.11255 0.10093,-0.16864 0.0102,-0.017 0.0203,-0.0342 0.0303,-0.0513 0.0332,-0.0571 0.0663,-0.11409 0.0994,-0.17093 0.01,-0.0171 0.0198,-0.0343 0.0295,-0.0515 0.0327,-0.0579 0.0653,-0.11561 0.0979,-0.1732 0.01,-0.0171 0.0192,-0.0343 0.0287,-0.0516 0.0322,-0.0586 0.0643,-0.11714 0.0963,-0.17549 0.009,-0.0172 0.0187,-0.0344 0.0279,-0.0517 0.0317,-0.0594 0.0632,-0.11868 0.0947,-0.1778 0.009,-0.0172 0.0182,-0.0344 0.0272,-0.0517 0.0311,-0.0602 0.0622,-0.12023 0.0931,-0.18011 0.009,-0.0172 0.0177,-0.0345 0.0264,-0.0518 0.0306,-0.061 0.0611,-0.12178 0.0915,-0.18242 0.009,-0.0172 0.0172,-0.0345 0.0256,-0.0518 0.0301,-0.0618 0.06,-0.12334 0.0899,-0.18475 0.008,-0.0172 0.0167,-0.0345 0.0248,-0.0518 0.0295,-0.0626 0.0589,-0.12491 0.0883,-0.18709 0.008,-0.0172 0.0161,-0.0345 0.0241,-0.0518 0.029,-0.0633 0.0578,-0.12648 0.0866,-0.18943 0.008,-0.0172 0.0156,-0.0344 0.0233,-0.0517 0.0284,-0.0641 0.0567,-0.12806 0.0849,-0.19179 0.008,-0.0172 0.0151,-0.0344 0.0225,-0.0517 0.0278,-0.0649 0.0556,-0.12964 0.0833,-0.19415 0.007,-0.0171 0.0146,-0.0343 0.0217,-0.0516 0.0273,-0.0657 0.0545,-0.13123 0.0815,-0.19652 0.007,-0.0171 0.0141,-0.0343 0.021,-0.0515 0.0267,-0.0665 0.0533,-0.13283 0.0798,-0.19891 0.007,-0.0171 0.0136,-0.0342 0.0202,-0.0513 0.0261,-0.0673 0.0521,-0.13444 0.0781,-0.2013 0.007,-0.017 0.0131,-0.0341 0.0195,-0.0512 0.0255,-0.0682 0.051,-0.13605 0.0763,-0.2037 0.006,-0.017 0.0126,-0.034 0.0188,-0.051 0.0249,-0.069 0.0498,-0.13766 0.0746,-0.20611 0.006,-0.0169 0.0121,-0.0338 0.0181,-0.0508 0.0244,-0.0698 0.0486,-0.13928 0.0728,-0.20852 0.006,-0.0168 0.0117,-0.0337 0.0174,-0.0506 0.0238,-0.0706 0.0474,-0.14091 0.071,-0.21095 0.006,-0.0168 0.0112,-0.0336 0.0166,-0.0504 0.0232,-0.0714 0.0462,-0.14255 0.0692,-0.21339 0.005,-0.0167 0.0107,-0.0334 0.0159,-0.0502 0.0225,-0.0723 0.045,-0.14419 0.0673,-0.21583 0.005,-0.0166 0.0103,-0.0332 0.0153,-0.0499 0.0219,-0.0731 0.0437,-0.14585 0.0655,-0.21829 0.005,-0.0165 0.01,-0.0331 0.0146,-0.0496 0.0213,-0.0739 0.0425,-0.1475 0.0636,-0.22074 0.005,-0.0164 0.009,-0.0329 0.0139,-0.0494 0.0207,-0.0748 0.0412,-0.14917 0.0617,-0.22322 0.005,-0.0163 0.009,-0.0327 0.0133,-0.0491 0.02,-0.0756 0.04,-0.15083 0.0598,-0.22569 0.004,-0.0162 0.009,-0.0325 0.0126,-0.0488 0.0194,-0.0764 0.0387,-0.15251 0.0579,-0.22819 0.004,-0.0161 0.008,-0.0323 0.012,-0.0484 0.0188,-0.0773 0.0374,-0.1542 0.056,-0.23068 0.004,-0.016 0.008,-0.0321 0.0114,-0.0481 0.0181,-0.0781 0.0361,-0.15588 0.054,-0.23319 0.004,-0.0159 0.007,-0.0318 0.0108,-0.0478 0.0175,-0.079 0.0348,-0.15759 0.052,-0.23571 0.003,-0.0158 0.007,-0.0316 0.0102,-0.0474 0.0168,-0.0799 0.0335,-0.15929 0.05,-0.23823 0.003,-0.0157 0.007,-0.0314 0.01,-0.0471 0.0161,-0.0807 0.0321,-0.161 0.048,-0.24076 0.003,-0.0156 0.006,-0.0311 0.009,-0.0467 0.0154,-0.0816 0.0308,-0.16272 0.046,-0.2433 0.003,-0.0154 0.006,-0.0309 0.009,-0.0463 0.0148,-0.0825 0.0294,-0.16445 0.044,-0.24585 0.003,-0.0153 0.005,-0.0306 0.008,-0.0459 0.0141,-0.0834 0.0281,-0.16619 0.0419,-0.24842 0.003,-0.0152 0.005,-0.0303 0.007,-0.0455 0.0134,-0.0843 0.0267,-0.16793 0.0399,-0.25098 0.002,-0.015 0.005,-0.0301 0.007,-0.0452 0.0127,-0.0852 0.0253,-0.16969 0.0378,-0.25356 0.002,-0.0149 0.004,-0.0298 0.006,-0.0448 0.012,-0.0861 0.0239,-0.17145 0.0357,-0.25615 0.002,-0.0148 0.004,-0.0296 0.006,-0.0444 0.0113,-0.087 0.0225,-0.17322 0.0336,-0.25875 0.002,-0.0146 0.004,-0.0293 0.005,-0.0439 0.0106,-0.0879 0.0211,-0.175 0.0315,-0.26135 0.002,-0.0145 0.003,-0.029 0.005,-0.0435 0.01,-0.0888 0.0196,-0.17679 0.0293,-0.26396 0.002,-0.0144 0.003,-0.0287 0.005,-0.0431 0.009,-0.0897 0.0182,-0.1786 0.0271,-0.26659 0.001,-0.0142 0.003,-0.0284 0.004,-0.0427 0.008,-0.0907 0.0167,-0.18041 0.025,-0.26922 0.001,-0.0141 0.003,-0.0282 0.004,-0.0422 0.008,-0.0916 0.0153,-0.18223 0.0228,-0.27186 0.001,-0.0139 0.002,-0.0279 0.003,-0.0418 0.007,-0.0926 0.0138,-0.18408 0.0205,-0.27451 0.001,-0.0138 0.002,-0.0276 0.003,-0.0414 0.006,-0.0935 0.0123,-0.18592 0.0183,-0.27716 9e-4,-0.0137 0.002,-0.0273 0.003,-0.041 0.005,-0.0945 0.0108,-0.18779 0.0161,-0.27983 7.7e-4,-0.0135 0.001,-0.027 0.002,-0.0405 0.005,-0.0955 0.009,-0.18969 0.0138,-0.28251 6.5e-4,-0.0134 0.001,-0.0267 0.002,-0.0401 0.004,-0.0965 0.008,-0.1916 0.0115,-0.2852 5.4e-4,-0.0132 0.001,-0.0264 0.001,-0.0397 0.003,-0.0976 0.006,-0.19353 0.009,-0.28788 4.2e-4,-0.0131 7.8e-4,-0.0262 0.001,-0.0392 0.002,-0.0986 0.005,-0.1955 0.007,-0.29059 3.1e-4,-0.0129 5.6e-4,-0.0259 7.6e-4,-0.0388 0.002,-0.0997 0.003,-0.19749 0.005,-0.2933 2e-4,-0.0128 3.5e-4,-0.0256 4.5e-4,-0.0384 7.6e-4,-0.10085 0.002,-0.19954 0.002,-0.29602 9e-5,-0.0126 1.4e-4,-0.0253 1.3e-4,-0.0379 -4e-5,-0.10205 -8e-5,-0.20165 -1.2e-4,-0.29876 a 4.7583643,4.7583643 90 0 0 -9.51672,0.004 c 3e-5,0.0911 7e-5,0.18435 1.1e-4,0.27978 -5.4e-4,0.0714 -0.001,0.16367 -0.002,0.25786 -0.001,0.0704 -0.003,0.16171 -0.004,0.25471 -0.002,0.0694 -0.004,0.15971 -0.006,0.25157 -0.002,0.0683 -0.005,0.15769 -0.008,0.24843 -0.003,0.0673 -0.006,0.15566 -0.01,0.24531 -0.003,0.0662 -0.008,0.15362 -0.0118,0.24219 -0.004,0.0651 -0.009,0.15156 -0.0137,0.23908 -0.004,0.064 -0.01,0.14951 -0.0156,0.23598 -0.005,0.0629 -0.011,0.14745 -0.0174,0.23289 -0.005,0.0618 -0.0122,0.1454 -0.0192,0.22982 -0.006,0.0607 -0.0133,0.14334 -0.021,0.22675 -0.006,0.0596 -0.0144,0.14128 -0.0228,0.22369 -0.006,0.0585 -0.0155,0.13924 -0.0245,0.22065 -0.007,0.0574 -0.0165,0.13719 -0.0262,0.21762 -0.007,0.0563 -0.0175,0.13515 -0.0279,0.2146 -0.008,0.0552 -0.0186,0.13312 -0.0295,0.2116 -0.008,0.0541 -0.0195,0.13108 -0.0311,0.20861 -0.008,0.053 -0.0205,0.12906 -0.0327,0.20563 -0.009,0.0519 -0.0215,0.12705 -0.0342,0.20266 -0.009,0.0508 -0.0224,0.12505 -0.0357,0.19972 -0.009,0.0497 -0.0233,0.12306 -0.0372,0.1968 -0.01,0.0487 -0.0242,0.12107 -0.0387,0.19387 -0.01,0.0476 -0.025,0.11911 -0.0401,0.19098 -0.0103,0.0465 -0.0259,0.11715 -0.0415,0.18811 -0.0105,0.0455 -0.0267,0.1152 -0.0429,0.18524 -0.0108,0.0445 -0.0275,0.11327 -0.0442,0.1824 -0.011,0.0434 -0.0283,0.11135 -0.0456,0.17958 -0.0112,0.0424 -0.029,0.10945 -0.0468,0.17678 -0.0114,0.0414 -0.0297,0.10756 -0.0481,0.174 -0.0116,0.0404 -0.0305,0.10569 -0.0493,0.17125 -0.0118,0.0394 -0.0311,0.10382 -0.0505,0.1685 -0.012,0.0384 -0.0318,0.10199 -0.0517,0.1658 -0.0121,0.0375 -0.0325,0.10017 -0.0529,0.16311 -0.0123,0.0365 -0.0331,0.0984 -0.054,0.16045 -0.0124,0.0356 -0.0337,0.0966 -0.0551,0.1578 -0.0125,0.0346 -0.0343,0.0948 -0.0562,0.1552 -0.0126,0.0337 -0.0349,0.0931 -0.0572,0.15261 -0.0127,0.0328 -0.0354,0.0913 -0.0582,0.15005 -0.0128,0.0319 -0.036,0.0896 -0.0592,0.14752 -0.0129,0.0311 -0.0365,0.088 -0.0602,0.14502 -0.0129,0.0302 -0.037,0.0863 -0.0611,0.14255 -0.013,0.0294 -0.0375,0.0847 -0.062,0.1401 -0.0131,0.0286 -0.038,0.0831 -0.063,0.13768 -0.0131,0.0278 -0.0384,0.0815 -0.0638,0.13531 -0.0131,0.027 -0.0389,0.0799 -0.0647,0.13295 -0.0131,0.0262 -0.0393,0.0784 -0.0655,0.13063 -0.0132,0.0255 -0.0397,0.0768 -0.0664,0.12835 -0.0132,0.0247 -0.0401,0.0754 -0.0672,0.12609 -0.0132,0.024 -0.0405,0.0739 -0.068,0.12386 -0.0132,0.0233 -0.0409,0.0725 -0.0687,0.12168 -0.0132,0.0226 -0.0413,0.071 -0.0695,0.11952 -0.0132,0.022 -0.0417,0.0696 -0.0703,0.11739 -0.0131,0.0214 -0.0421,0.0683 -0.071,0.11531 -0.0131,0.0207 -0.0424,0.067 -0.0717,0.11324 -0.0131,0.0201 -0.0428,0.0657 -0.0724,0.11123 -0.0131,0.0196 -0.0431,0.0644 -0.0731,0.10924 -0.0131,0.019 -0.0434,0.0631 -0.0738,0.10728 -0.0131,0.0185 -0.0438,0.0619 -0.0745,0.10536 -0.013,0.0179 -0.0441,0.0607 -0.0752,0.10347 -0.013,0.0174 -0.0444,0.0595 -0.0759,0.10162 -0.013,0.017 -0.0447,0.0584 -0.0765,0.0998 -0.013,0.0165 -0.0451,0.0572 -0.0772,0.098 -0.013,0.0161 -0.0454,0.0561 -0.0778,0.0962 -0.013,0.0156 -0.0457,0.0551 -0.0785,0.0945 -0.013,0.0152 -0.046,0.054 -0.0791,0.0928 -0.013,0.0148 -0.0464,0.053 -0.0798,0.0912 -0.013,0.0144 -0.0467,0.052 -0.0804,0.0895 -0.013,0.0141 -0.047,0.051 -0.0811,0.0879 -0.013,0.0137 -0.0474,0.05 -0.0818,0.0864 -0.013,0.0134 -0.0477,0.0491 -0.0824,0.0848 -0.0131,0.0131 -0.0481,0.0482 -0.0831,0.0833 -0.0131,0.0128 -0.0484,0.0473 -0.0837,0.0818 -0.0132,0.0125 -0.0488,0.0464 -0.0844,0.0803 -0.0132,0.0123 -0.0491,0.0456 -0.0851,0.0789 -0.0133,0.012 -0.0495,0.0447 -0.0857,0.0775 -0.0134,0.0118 -0.0499,0.0439 -0.0864,0.0761 -0.0135,0.0115 -0.0503,0.0431 -0.0871,0.0747 -0.0135,0.0113 -0.0507,0.0423 -0.0878,0.0734 -0.0136,0.0111 -0.051,0.0416 -0.0885,0.072 -0.0138,0.0109 -0.0515,0.0408 -0.0892,0.0707 -0.0139,0.0107 -0.0519,0.0401 -0.0899,0.0694 -0.014,0.0105 -0.0523,0.0393 -0.0906,0.0682 -0.0141,0.0104 -0.0527,0.0386 -0.0913,0.0669 -0.0143,0.0102 -0.0532,0.0379 -0.0921,0.0656 -0.0145,0.01 -0.0536,0.0372 -0.0928,0.0644 -0.0146,0.01 -0.0541,0.0365 -0.0935,0.0632 -0.0148,0.01 -0.0545,0.0359 -0.0943,0.062 -0.015,0.01 -0.055,0.0352 -0.095,0.0608 -0.0152,0.009 -0.0555,0.0345 -0.0958,0.0596 -0.0154,0.009 -0.056,0.0339 -0.0966,0.0585 -0.0156,0.009 -0.0565,0.0332 -0.0973,0.0573 -0.0158,0.009 -0.057,0.0326 -0.0981,0.0561 -0.0161,0.009 -0.0575,0.032 -0.0989,0.055 -0.0163,0.009 -0.058,0.0314 -0.0996,0.0539 -0.0166,0.009 -0.0585,0.0307 -0.10042,0.0527 -0.0168,0.009 -0.059,0.0301 -0.10121,0.0516 -0.0171,0.008 -0.0595,0.0295 -0.102,0.0505 -0.0173,0.008 -0.0601,0.0289 -0.10278,0.0494 -0.0176,0.008 -0.0606,0.0282 -0.10357,0.0483 -0.0179,0.008 -0.0611,0.0276 -0.10436,0.0472 -0.0182,0.008 -0.0617,0.027 -0.10515,0.0461 -0.0185,0.008 -0.0622,0.0264 -0.10593,0.045 -0.0188,0.008 -0.0627,0.0258 -0.10672,0.0438 -0.0191,0.008 -0.0633,0.0252 -0.1075,0.0427 -0.0194,0.007 -0.0638,0.0245 -0.10829,0.0416 -0.0197,0.007 -0.0644,0.0239 -0.10906,0.0406 -0.02,0.007 -0.0649,0.0233 -0.10983,0.0394 -0.0203,0.007 -0.0655,0.0227 -0.11061,0.0384 -0.0206,0.007 -0.066,0.0221 -0.11136,0.0373 -0.0209,0.007 -0.0665,0.0214 -0.11213,0.0361 -0.0212,0.007 -0.0671,0.0208 -0.11288,0.035 -0.0216,0.006 -0.0676,0.0202 -0.11362,0.0339 -0.0219,0.006 -0.0681,0.0196 -0.11436,0.0328 -0.0222,0.006 -0.0687,0.0189 -0.11509,0.0317 -0.0225,0.006 -0.0692,0.0183 -0.11581,0.0306 -0.0228,0.006 -0.0697,0.0177 -0.11652,0.0295 -0.0232,0.006 -0.0702,0.017 -0.11722,0.0284 -0.0235,0.005 -0.0707,0.0164 -0.11791,0.0273 -0.0238,0.005 -0.0712,0.0157 -0.11859,0.0262 -0.0241,0.005 -0.0717,0.0151 -0.11926,0.0251 -0.0244,0.005 -0.0722,0.0144 -0.11991,0.024 -0.0247,0.005 -0.0727,0.0138 -0.12056,0.0228 -0.025,0.004 -0.0731,0.0131 -0.12119,0.0217 -0.0253,0.004 -0.0736,0.0125 -0.12181,0.0206 -0.0256,0.004 -0.074,0.0118 -0.12241,0.0195 -0.0259,0.004 -0.0745,0.0111 -0.123,0.0184 -0.0262,0.004 -0.0749,0.0104 -0.12358,0.0172 -0.0265,0.003 -0.0753,0.01 -0.12414,0.0161 -0.0267,0.003 -0.0757,0.009 -0.12468,0.015 -0.027,0.003 -0.0761,0.008 -0.12521,0.0139 -0.0273,0.003 -0.0765,0.008 -0.12572,0.0127 -0.0275,0.003 -0.0769,0.007 -0.12621,0.0116 -0.0278,0.002 -0.0773,0.006 -0.1267,0.0105 -0.0281,0.002 -0.0776,0.006 -0.12716,0.009 -0.0283,0.002 -0.078,0.005 -0.12761,0.008 -0.0285,0.002 -0.0783,0.004 -0.12803,0.007 -0.0288,0.001 -0.0786,0.004 -0.12844,0.006 -0.029,0.001 -0.0789,0.003 -0.12883,0.005 -0.0292,8.5e-4 -0.0792,0.002 -0.12921,0.004 -0.0294,5.9e-4 -0.0795,0.002 -0.12956,0.003 -0.0296,3.4e-4 -0.0798,9.2e-4 -0.12989,0.002 -0.0298,8e-5 -0.0801,2.3e-4 -0.13021,3.8e-4 -0.03,-1.6e-4 -0.0803,-4.4e-4 -0.13051,-7.2e-4 -0.0302,-4.3e-4 -0.0805,-0.001 -0.13079,-0.002 -0.0304,-6.9e-4 -0.0807,-0.002 -0.13104,-0.003 -0.0305,-9.5e-4 -0.0809,-0.002 -0.13128,-0.004 -0.0307,-0.001 -0.0811,-0.003 -0.1315,-0.005 -0.0309,-0.001 -0.0813,-0.004 -0.1317,-0.006 -0.031,-0.002 -0.0815,-0.005 -0.13187,-0.007 -0.0311,-0.002 -0.0816,-0.005 -0.13203,-0.008 -0.0313,-0.002 -0.0818,-0.006 -0.13217,-0.01 -0.0314,-0.003 -0.0819,-0.007 -0.13229,-0.0106 -0.0315,-0.003 -0.082,-0.007 -0.13238,-0.0117 -0.0316,-0.003 -0.0821,-0.008 -0.13246,-0.0128 -0.0317,-0.003 -0.0822,-0.009 -0.13251,-0.0139 -0.0318,-0.004 -0.0822,-0.009 -0.13254,-0.0149 -0.0319,-0.004 -0.0823,-0.01 -0.13255,-0.016 -0.0319,-0.004 -0.0823,-0.0106 -0.13255,-0.0171 -0.032,-0.004 -0.0823,-0.0112 -0.13251,-0.0181 -0.032,-0.005 -0.0823,-0.0119 -0.13247,-0.0192 -0.0321,-0.005 -0.0823,-0.0125 -0.13238,-0.0202 -0.0321,-0.005 -0.0823,-0.0132 -0.1323,-0.0212 -0.0322,-0.005 -0.0822,-0.0138 -0.13218,-0.0223 -0.0322,-0.006 -0.0822,-0.0145 -0.13204,-0.0233 -0.0322,-0.006 -0.0821,-0.0151 -0.13188,-0.0243 -0.0322,-0.006 -0.082,-0.0157 -0.1317,-0.0253 -0.0322,-0.006 -0.0819,-0.0164 -0.1315,-0.0263 -0.0322,-0.007 -0.0818,-0.017 -0.13127,-0.0273 -0.0321,-0.007 -0.0817,-0.0176 -0.13103,-0.0283 -0.0321,-0.007 -0.0815,-0.0182 -0.13076,-0.0292 -0.0321,-0.007 -0.0813,-0.0188 -0.13048,-0.0302 -0.032,-0.008 -0.0812,-0.0194 -0.13016,-0.0312 -0.0319,-0.008 -0.081,-0.02 -0.12982,-0.0321 -0.0319,-0.008 -0.0808,-0.0206 -0.12948,-0.0331 -0.0318,-0.008 -0.0805,-0.0212 -0.12909,-0.034 -0.0317,-0.009 -0.0803,-0.0218 -0.1287,-0.0349 -0.0316,-0.009 -0.08,-0.0224 -0.12828,-0.0358 -0.0315,-0.009 -0.0798,-0.0229 -0.12784,-0.0367 -0.0314,-0.009 -0.0795,-0.0235 -0.12737,-0.0376 -0.0312,-0.009 -0.0792,-0.024 -0.12689,-0.0385 -0.0311,-0.01 -0.0789,-0.0246 -0.12637,-0.0394 -0.031,-0.01 -0.0785,-0.0251 -0.12585,-0.0402 -0.0308,-0.0101 -0.0782,-0.0256 -0.1253,-0.0411 -0.0307,-0.0103 -0.0778,-0.0262 -0.12473,-0.0419 -0.0305,-0.0105 -0.0774,-0.0267 -0.12413,-0.0428 -0.0303,-0.0107 -0.0771,-0.0272 -0.12351,-0.0436 -0.0301,-0.0109 -0.0766,-0.0277 -0.12287,-0.0444 -0.03,-0.0111 -0.0762,-0.0282 -0.12222,-0.0452 -0.0297,-0.0112 -0.0758,-0.0287 -0.12153,-0.046 -0.0295,-0.0114 -0.0753,-0.0291 -0.12082,-0.0467 -0.0293,-0.0116 -0.0749,-0.0296 -0.1201,-0.0475 -0.0291,-0.0118 -0.0744,-0.0301 -0.11935,-0.0482 -0.0289,-0.0119 -0.0739,-0.0305 -0.11859,-0.049 -0.0286,-0.0121 -0.0734,-0.031 -0.11779,-0.0497 -0.0286,-0.0123 -0.057,-0.0246 -0.0853,-0.0367 -0.0106,-0.005 -0.0211,-0.009 -0.0317,-0.0137 -0.0277,-0.0122 -0.072,-0.0316 -0.11615,-0.0511 -0.0274,-0.0123 -0.0714,-0.032 -0.11528,-0.0518 -0.0271,-0.0124 -0.0708,-0.0324 -0.11441,-0.0524 -0.0268,-0.0125 -0.0702,-0.0328 -0.11351,-0.0531 -0.0265,-0.0127 -0.0696,-0.0332 -0.11259,-0.0537 -0.0262,-0.0128 -0.069,-0.0336 -0.11164,-0.0543 -0.0259,-0.0128 -0.0683,-0.0339 -0.11068,-0.0549 -0.0256,-0.0129 -0.0677,-0.0342 -0.1097,-0.0555 -0.0252,-0.013 -0.067,-0.0345 -0.10869,-0.0561 -0.0249,-0.0131 -0.0663,-0.0349 -0.10766,-0.0566 -0.0245,-0.0131 -0.0656,-0.0352 -0.10661,-0.0572 -0.0241,-0.0132 -0.0649,-0.0354 -0.10554,-0.0577 -0.0237,-0.0132 -0.0641,-0.0357 -0.10445,-0.0582 -0.0234,-0.0133 -0.0634,-0.036 -0.10334,-0.0587 -0.023,-0.0133 -0.0626,-0.0362 -0.1022,-0.0591 -0.0226,-0.0133 -0.0618,-0.0365 -0.10106,-0.0596 -0.0221,-0.0133 -0.061,-0.0367 -0.0999,-0.06 -0.0217,-0.0133 -0.0602,-0.0369 -0.0987,-0.0604 -0.0213,-0.0133 -0.0594,-0.037 -0.0975,-0.0608 -0.0209,-0.0133 -0.0586,-0.0372 -0.0962,-0.0611 -0.0204,-0.0132 -0.0577,-0.0374 -0.095,-0.0615 -0.02,-0.0132 -0.0569,-0.0375 -0.0937,-0.0618 -0.0195,-0.0131 -0.056,-0.0376 -0.0924,-0.0621 -0.019,-0.013 -0.0551,-0.0378 -0.0911,-0.0624 -0.0186,-0.013 -0.0542,-0.0378 -0.0898,-0.0626 -0.0181,-0.0129 -0.0533,-0.0379 -0.0884,-0.0629 -0.0176,-0.0128 -0.0524,-0.038 -0.0871,-0.0631 -0.0171,-0.0126 -0.0514,-0.038 -0.0857,-0.0633 -0.0166,-0.0125 -0.0505,-0.038 -0.0843,-0.0634 -0.0161,-0.0124 -0.0495,-0.038 -0.0828,-0.0636 -0.0156,-0.0122 -0.0486,-0.038 -0.0814,-0.0637 -0.0151,-0.012 -0.0476,-0.038 -0.0799,-0.0638 -0.0146,-0.0119 -0.0466,-0.0379 -0.0785,-0.0638 -0.014,-0.0116 -0.0456,-0.0378 -0.077,-0.0639 -0.0135,-0.0114 -0.0446,-0.0377 -0.0755,-0.0639 -0.013,-0.0112 -0.0435,-0.0376 -0.074,-0.0638 -0.0124,-0.0109 -0.0425,-0.0374 -0.0724,-0.0638 -0.0119,-0.0107 -0.0415,-0.0373 -0.0709,-0.0637 -0.0113,-0.0104 -0.0404,-0.0371 -0.0693,-0.0636 -0.0108,-0.0101 -0.0394,-0.0369 -0.0677,-0.0634 -0.0102,-0.01 -0.0383,-0.0366 -0.0662,-0.0633 -0.01,-0.009 -0.0372,-0.0363 -0.0646,-0.0631 -0.009,-0.009 -0.0362,-0.0361 -0.063,-0.0628 -0.009,-0.009 -0.0351,-0.0358 -0.0614,-0.0626 -0.008,-0.008 -0.034,-0.0354 -0.0597,-0.0623 -0.007,-0.008 -0.0329,-0.0351 -0.0581,-0.062 -0.007,-0.008 -0.0318,-0.0347 -0.0565,-0.0616 -0.006,-0.007 -0.0307,-0.0343 -0.0548,-0.0612 -0.006,-0.007 -0.0296,-0.0339 -0.0532,-0.0608 -0.005,-0.006 -0.0285,-0.0334 -0.0515,-0.0603 -0.005,-0.006 -0.0275,-0.0329 -0.0499,-0.0598 -0.004,-0.005 -0.0264,-0.0324 -0.0483,-0.0593 -0.004,-0.005 -0.0253,-0.0319 -0.0466,-0.0587 -0.003,-0.004 -0.0242,-0.0313 -0.045,-0.0581 -0.003,-0.004 -0.0232,-0.0308 -0.0433,-0.0575 -0.002,-0.003 -0.0222,-0.0302 -0.0417,-0.0568 -0.002,-0.002 -0.0211,-0.0296 -0.0401,-0.0561 -0.001,-0.002 -0.0201,-0.029 -0.0385,-0.0554 -9e-4,-0.001 -0.0191,-0.0283 -0.0369,-0.0546 -0.0183,-0.028 -0.036,-0.055 -0.0532,-0.0812 a 4.7583643,4.7583643 90 0 0 -7.96078,5.2148 z"
     id="path-1-2"
     inkscape:path-effect="#path-effect66;#path-effect67"
     inkscape:original-d="m 260.75836,223.3259 c 5.97139,9.25348 31.83387,13.55568 31.72243,-12.05452"
     style="fill:#ffffff;fill-opacity:1;fill-rule:nonzero;stroke:none"
     transform="matrix(2.1881911,0,0,1.8113861,-320.17691,-9.5618006)"
     sodipodi:nodetypes="cc" />
</svg>
